# xmcd
#
# Track frame offsets:
#	150
#	18750
#	45669
#	65877
#	89911
#	111619
#	128584
#	145421
#	166995
#	188795
#	204775
#	225772
#
# Disc length: 3203 seconds
#
# Revision: 1
# Processed by: cddbd v1.5.2PL0 Copyright (c) Steve Scherf et al.
# Submitted via: audiograbber 1.83.01
#
DISCID=a30c810c
DTITLE=Birgit June ( LC 11577 ) - Songlines
DYEAR=2001
DGENRE=Easylisting
TTITLE0=Your Song
TTITLE1=In My Dreams
TTITLE2=Helena
TTITLE3=So Many Dreams
TTITLE4=The Joker
TTITLE5=Free And Easy
TTITLE6=A Valentines Day At The Cafe
TTITLE7=It's All Within A Song
TTITLE8=Music Over The Sand
TTITLE9=A Wild Wind Flower
TTITLE10=Good Travelling
TTITLE11=Bird Of Northwind
EXTD=
EXTT0=
EXTT1=
EXTT2=
EXTT3=
EXTT4=
EXTT5=
EXTT6=
EXTT7=
EXTT8=
EXTT9=
EXTT10=
EXTT11=
PLAYORDER=
